<svg width="168" height="168" viewBox="0 0 168 168" fill="none" xmlns="http://www.w3.org/2000/svg">
<path d="M0.366103 42.8228C0.366103 30.6097 0.366103 18.3966 0.366103 6.19345C0.366103 2.54745 2.58784 0.335938 6.23427 0.335938C30.6534 0.335938 55.0826 0.335938 79.5017 0.335938C83.1481 0.335938 85.4197 2.61718 85.4197 6.30303C85.4197 29.5936 85.4795 52.8941 85.3699 76.1847C85.35 80.4782 88.3089 82.6001 91.796 82.5802C115.089 82.5104 138.383 82.5802 161.676 82.4905C164.535 82.4805 167.654 84.5127 167.644 88.4775C167.614 112.864 167.634 137.24 167.624 161.627C167.624 165.233 165.253 167.604 161.636 167.604C137.257 167.604 112.868 167.604 88.4883 167.624C84.5629 167.624 82.5105 164.535 82.5205 161.637C82.6002 138.227 82.5703 114.806 82.5703 91.3963C82.5703 88.8859 81.6437 86.8836 79.2526 85.8775C78.3659 85.5089 77.2999 85.4193 76.3136 85.4193C52.9804 85.3993 29.6472 85.3993 6.30401 85.3993C3.35498 85.3993 1.19303 83.8652 0.515547 81.2552C0.366103 80.6775 0.35614 80.0598 0.35614 79.4621C0.35614 67.249 0.35614 55.0359 0.35614 42.8328L0.366103 42.8228Z" fill="white"/>
</svg>
